<?xml version="1.0" encoding="UTF-8" standalone="no"?>
<svg viewBox="0 0 750 1050" xmlns="http://www.w3.org/2000/svg" xmlns:xlink="http://www.w3.org/1999/xlink">
<defs>
<clipPath id="clipPath14104">
<path d="m287.1653-106.342 191.4871-97.4408 252.3654,525.3267c16.3729,80.0749-176.6915,150.2966-197.7389,84.6418z" fill-rule="evenodd"/>
</clipPath>
<clipPath id="clipPath32255">
<path d="m-210.6604,784.2305h476.6631v663.8829h-476.6631z" fill-rule="evenodd"/>
</clipPath>
<clipPath id="clipPath32421">
<path d="m9.1798,661.2991h474.4435v660.5841h-474.4435z" fill-rule="evenodd"/>
</clipPath>
<filter id="filter13948">
<feGaussianBlur stdDeviation="1.084"/>
</filter>
<filter id="filter14014">
<feGaussianBlur stdDeviation="1.165"/>
</filter>
<filter id="filter32233">
<feGaussianBlur stdDeviation="10.049"/>
</filter>
<filter id="filter32511">
<feGaussianBlur stdDeviation="12.059"/>
</filter>
<linearGradient id="linearGradient1220">
<stop offset="0" stop-color="#fff"/>
<stop offset=".5" stop-color="#e1b568"/>
<stop offset="1" stop-color="#b77e24"/>
</linearGradient>
<linearGradient id="linearGradient23963">
<stop offset="0" stop-color="#070"/>
<stop offset=".5" stop-color="#00d400"/>
<stop offset="1" stop-color="#070"/>
</linearGradient>
<linearGradient id="linearGradient23786">
<stop offset="0" stop-color="#00f"/>
<stop offset=".5" stop-color="#0086ff"/>
<stop offset="1" stop-color="#00f"/>
</linearGradient>
<linearGradient id="linearGradient14040">
<stop offset="0" stop-color="#daa240"/>
<stop offset=".253" stop-color="#f0dc5c"/>
<stop offset=".626" stop-color="#ecd858"/>
<stop offset="1" stop-color="#b77e24"/>
</linearGradient>
<linearGradient id="linearGradient8985">
<stop offset="0" stop-color="#2c011f"/>
<stop offset=".093" stop-color="#610a54"/>
<stop offset=".564" stop-color="#a978af"/>
<stop offset=".875" stop-color="#5c0b4f"/>
<stop offset="1" stop-color="#2c011f"/>
</linearGradient>
<linearGradient id="linearGradient8977">
<stop offset="0"/>
<stop offset=".519" stop-color="#b3b3b3"/>
<stop offset="1"/>
</linearGradient>
<linearGradient id="linearGradient7442">
<stop offset="0" stop-color="#00112b"/>
<stop offset=".093" stop-color="#04a"/>
<stop offset=".564" stop-color="#80b3ff"/>
<stop offset=".875" stop-color="#04a"/>
<stop offset="1" stop-color="#00112b"/>
</linearGradient>
<linearGradient id="linearGradient6750">
<stop offset="0" stop-color="#ca120f"/>
<stop offset=".519" stop-color="#f07d6a"/>
<stop offset="1" stop-color="#ca120f"/>
</linearGradient>
<linearGradient gradientUnits="userSpaceOnUse" id="linearGradient20746" x1="-441.8296" x2="-357.494" y1="465.2346" y2="475.191">
<stop offset="0" stop-color="#f7a01f"/>
<stop offset=".5" stop-color="#ecbe42"/>
<stop offset="1" stop-color="#e28235"/>
</linearGradient>
<linearGradient gradientUnits="userSpaceOnUse" id="linearGradient23760" x1="-432.9224" x2="-351.5406" y1="401.1693" y2="410.777">
<stop offset="0" stop-color="#a00"/>
<stop offset=".519" stop-color="#dd483d"/>
<stop offset="1" stop-color="#a00"/>
</linearGradient>
<linearGradient gradientUnits="userSpaceOnUse" id="linearGradient23784" x1="-443.5101" x2="-361.5797" y1="486.1402" y2="495.8127">
<stop offset="0" stop-color="#daa240"/>
<stop offset=".5" stop-color="#fff"/>
<stop offset="1" stop-color="#b77e24"/>
</linearGradient>
<linearGradient gradientUnits="userSpaceOnUse" id="linearGradient32191" x2="0" y1="-2.571" y2="1035.3908">
<stop offset="0" stop-color="#231840"/>
<stop offset="1" stop-color="#280a6a"/>
</linearGradient>
<linearGradient gradientUnits="userSpaceOnUse" id="linearGradient13912" x1="952.27" x2="1046.7466" xlink:href="#linearGradient6750"/>
<linearGradient gradientUnits="userSpaceOnUse" id="linearGradient13920" x1="951.916" x2="1047.3653" xlink:href="#linearGradient6750"/>
<linearGradient gradientUnits="userSpaceOnUse" id="linearGradient14038" x1="-533.3532" x2="-448.4318" xlink:href="#linearGradient14040"/>
<linearGradient gradientUnits="userSpaceOnUse" id="linearGradient14080" x1="-533.3005" x2="-450.0234" xlink:href="#linearGradient6750"/>
<linearGradient gradientUnits="userSpaceOnUse" id="linearGradient14118" x1="-476.6923" x2="-466.8535" xlink:href="#linearGradient8977"/>
<linearGradient gradientUnits="userSpaceOnUse" id="linearGradient20744" x1="-327.5762" x2="-317.7374" xlink:href="#linearGradient8977"/>
<linearGradient gradientTransform="matrix(.86646,.10229,-.11754,.99562,-1216.3792,148.25356)" gradientUnits="userSpaceOnUse" id="linearGradient20752" x1="924.2947" x2="1019.7439" xlink:href="#linearGradient7442"/>
<linearGradient gradientUnits="userSpaceOnUse" id="linearGradient20768" x1="951.916" x2="1047.3654" xlink:href="#linearGradient7442"/>
<linearGradient gradientUnits="userSpaceOnUse" id="linearGradient23768" x1="-436.5647" x2="-354.9086" xlink:href="#linearGradient8985" y1="429.665" y2="439.3051"/>
<linearGradient gradientUnits="userSpaceOnUse" id="linearGradient23776" x1="-440.2393" x2="-358.3089" xlink:href="#linearGradient14040" y1="458.435" y2="468.1075"/>
<linearGradient gradientUnits="userSpaceOnUse" id="linearGradient23792" x1="-446.9428" x2="-365.0124" xlink:href="#linearGradient23786" y1="515.2169" y2="524.8894"/>
<linearGradient gradientUnits="userSpaceOnUse" id="linearGradient23802" x1="-429.0858" x2="-347.9784" xlink:href="#linearGradient23786" y1="371.0277" y2="380.6031"/>
<linearGradient gradientUnits="userSpaceOnUse" id="linearGradient23810" x1="-450.1812" x2="-368.2508" xlink:href="#linearGradient6750" y1="542.6478" y2="552.3202"/>
<linearGradient gradientUnits="userSpaceOnUse" id="linearGradient23818" x1="-453.0634" x2="-371.133" xlink:href="#linearGradient8985" y1="567.0612" y2="576.7337"/>
<linearGradient gradientUnits="userSpaceOnUse" id="linearGradient23945" x1="544.6025" x2="554.4413" xlink:href="#linearGradient8977"/>
<linearGradient gradientUnits="userSpaceOnUse" id="linearGradient23947" x1="487.9416" x2="572.863" xlink:href="#linearGradient8985"/>
<linearGradient gradientUnits="userSpaceOnUse" id="linearGradient23953" x1="487.9943" x2="571.2714" xlink:href="#linearGradient23963"/>
<linearGradient gradientUnits="userSpaceOnUse" id="linearGradient23971" x1="482.6777" x2="578.1271" xlink:href="#linearGradient23963"/>
<radialGradient cx="725.9324" cy="375.842" gradientTransform="matrix(1,0,0,.93105,160.7902,429.63338)" gradientUnits="userSpaceOnUse" id="radialGradient32056" r="31.0137" xlink:href="#linearGradient1220"/>
<radialGradient cx="725.9324" cy="375.842" gradientTransform="matrix(.85338,.52129,-.48535,.79454,-944.9455,-43.87061)" gradientUnits="userSpaceOnUse" id="radialGradient32062" r="31.0137" xlink:href="#linearGradient1220"/>
<radialGradient cx="725.9324" cy="375.842" gradientTransform="matrix(.47385,.88061,-.81989,.44118,-460.59294,-113.46151)" gradientUnits="userSpaceOnUse" id="radialGradient32066" r="31.0137" xlink:href="#linearGradient1220"/>
</defs>
<title>Fireworks</title>
<g transform="translate(0,-2.3622)">
<path d="m3.3531,6.2253h739.1655v1029.1655h-739.1655z" fill="url(#linearGradient32191)" fill-rule="evenodd" stroke="#000" stroke-width=".8345"/>
<g clip-path="url(#clipPath32255)" fill="#fce280" fill-opacity=".395" filter="url(#filter32511)" opacity=".4" transform="matrix(1.55796,0,0,1.55796,328.51341,-1215.9941)">
<path d="m83.9533-39.7555c-10.0572,9.4347-22.8401-42.4901-35.4056-36.8096-12.8136,5.7926 15.3763,48.8504 1.6841,52.0545-13.4271,3.1421 1.465-48.2175-12.2573-49.5809-13.9932-1.3903-11.1089,49.9939-24.5688,45.9226-13.1993-3.9924 25.3775-41.0251 14.1753-49.0669-11.4233-8.2006-34.6176,37.7415-44.2385,27.4858-9.4347-10.0572 42.4901-22.8401 36.8096-35.4056-5.7926-12.8136-48.8504,15.3763-52.0545,1.6841-3.1421-13.4271 48.2175,1.465 49.5809-12.2573 1.3903-13.9932-49.9939-11.1089-45.9226-24.5688 3.9924-13.1992 41.0251,25.3775 49.0669,14.1753 8.2006-11.4233-37.7415-34.6176-27.4858-44.2385 10.0572-9.4347 22.8401,42.4901 35.4056,36.8096 12.8136-5.7926-15.3763-48.8504-1.6841-52.0545 13.4271-3.1421-1.465,48.2175 12.2573,49.5808 13.9932,1.3903 11.1089-49.9939 24.5688-45.9226 13.1993,3.9924-25.3775,41.0251-14.1753,49.0669 11.4233,8.2006 34.6176-37.7415 44.2385-27.4858 9.4347,10.0572-42.4901,22.8401-36.8096,35.4056 5.7926,12.8136 48.8504-15.3763 52.0545-1.6842 3.1421,13.4271-48.2175-1.465-49.5808,12.2573-1.3903,13.9932 49.9939,11.1089 45.9226,24.5688-3.9924,13.1993-41.0251-25.3775-49.0669-14.1753-8.2006,11.4233 37.7415,34.6176 27.4858,44.2385z" fill="#fce280" fill-opacity=".395" transform="matrix(1.72974,.63992,-.63992,1.72974,72.32408,992.05779)"/>
<path d="m159.4712,117.7431c-11.8884,4.6621 18.1944,52.3096 5.5165,50.7805-12.8856-1.5542 4.0727-49.2335-8.7608-51.1714-12.6267-1.9067-10.398,54.3987-20.6128,46.7355-10.3821-7.7888 28.1438-40.6011 17.9986-48.6961-9.9817-7.9646-36.2043,41.9117-41.219,30.1677-5.0968-11.9363 44.6738-21.0897 39.9353-33.1728-4.6621-11.8884-52.3097,18.1944-50.7805,5.5165 1.5542-12.8856 49.2335,4.0727 51.1714-8.7608 1.9067-12.6267-54.3987-10.398-46.7355-20.6128 7.7888-10.3822 40.6011,28.1438 48.6961,17.9986 7.9646-9.9817-41.9117-36.2043-30.1677-41.219 11.9363-5.0968 21.0897,44.6738 33.1728,39.9353 11.8884-4.6621-18.1945-52.3097-5.5165-50.7805 12.8856,1.5542-4.0727,49.2335 8.7608,51.1714 12.6267,1.9067 10.398-54.3987 20.6128-46.7355 10.3822,7.7888-28.1438,40.6011-17.9986,48.6961 9.9817,7.9646 36.2043-41.9117 41.219-30.1677 5.0968,11.9363-44.6738,21.0897-39.9353,33.1728 4.6621,11.8884 52.3097-18.1944 50.7805-5.5165-1.5542,12.8856-49.2335-4.0727-51.1714,8.7608-1.9067,12.6267 54.3987,10.398 46.7355,20.6128-7.7888,10.3822-40.6011-28.1438-48.6961-17.9986-7.9646,9.9817 41.9117,36.2043 30.1677,41.219-11.9363,5.0968-21.0897-44.6738-33.1728-39.9353z" fill="#fce280" fill-opacity=".395" transform="matrix(3.50472,0,0,3.53935,-355.77354,457.74686)"/>
</g>
<g clip-path="url(#clipPath32421)" fill="#fce280" fill-opacity=".278" filter="url(#filter32233)" opacity=".369" transform="matrix(1.55796,0,0,1.55796,-11.36588,-1024.4717)">
<path d="m83.9533-39.7555c-10.0572,9.4347-22.8401-42.4901-35.4056-36.8096-12.8136,5.7926 15.3763,48.8504 1.6841,52.0545-13.4271,3.1421 1.465-48.2175-12.2573-49.5809-13.9932-1.3903-11.1089,49.9939-24.5688,45.9226-13.1993-3.9924 25.3775-41.0251 14.1753-49.0669-11.4233-8.2006-34.6176,37.7415-44.2385,27.4858-9.4347-10.0572 42.4901-22.8401 36.8096-35.4056-5.7926-12.8136-48.8504,15.3763-52.0545,1.6841-3.1421-13.4271 48.2175,1.465 49.5809-12.2573 1.3903-13.9932-49.9939-11.1089-45.9226-24.5688 3.9924-13.1992 41.0251,25.3775 49.0669,14.1753 8.2006-11.4233-37.7415-34.6176-27.4858-44.2385 10.0572-9.4347 22.8401,42.4901 35.4056,36.8096 12.8136-5.7926-15.3763-48.8504-1.6841-52.0545 13.4271-3.1421-1.465,48.2175 12.2573,49.5808 13.9932,1.3903 11.1089-49.9939 24.5688-45.9226 13.1993,3.9924-25.3775,41.0251-14.1753,49.0669 11.4233,8.2006 34.6176-37.7415 44.2385-27.4858 9.4347,10.0572-42.4901,22.8401-36.8096,35.4056 5.7926,12.8136 48.8504-15.3763 52.0545-1.6842 3.1421,13.4271-48.2175-1.465-49.5808,12.2573-1.3903,13.9932 49.9939,11.1089 45.9226,24.5688-3.9924,13.1993-41.0251-25.3775-49.0669-14.1753-8.2006,11.4233 37.7415,34.6176 27.4858,44.2385z" fill="#fce280" fill-opacity=".278" transform="matrix(1.72974,.63992,-.63992,1.72974,72.32408,992.05779)"/>
<path d="m159.4712,117.7431c-11.8884,4.6621 18.1944,52.3096 5.5165,50.7805-12.8856-1.5542 4.0727-49.2335-8.7608-51.1714-12.6267-1.9067-10.398,54.3987-20.6128,46.7355-10.3821-7.7888 28.1438-40.6011 17.9986-48.6961-9.9817-7.9646-36.2043,41.9117-41.219,30.1677-5.0968-11.9363 44.6738-21.0897 39.9353-33.1728-4.6621-11.8884-52.3097,18.1944-50.7805,5.5165 1.5542-12.8856 49.2335,4.0727 51.1714-8.7608 1.9067-12.6267-54.3987-10.398-46.7355-20.6128 7.7888-10.3822 40.6011,28.1438 48.6961,17.9986 7.9646-9.9817-41.9117-36.2043-30.1677-41.219 11.9363-5.0968 21.0897,44.6738 33.1728,39.9353 11.8884-4.6621-18.1945-52.3097-5.5165-50.7805 12.8856,1.5542-4.0727,49.2335 8.7608,51.1714 12.6267,1.9067 10.398-54.3987 20.6128-46.7355 10.3822,7.7888-28.1438,40.6011-17.9986,48.6961 9.9817,7.9646 36.2043-41.9117 41.219-30.1677 5.0968,11.9363-44.6738,21.0897-39.9353,33.1728 4.6621,11.8884 52.3097-18.1944 50.7805-5.5165-1.5542,12.8856-49.2335-4.0727-51.1714,8.7608-1.9067,12.6267 54.3987,10.398 46.7355,20.6128-7.7888,10.3822-40.6011-28.1438-48.6961-17.9986-7.9646,9.9817 41.9117,36.2043 30.1677,41.219-11.9363,5.0968-21.0897-44.6738-33.1728-39.9353z" fill="#fce280" fill-opacity=".278" transform="matrix(3.50472,0,0,3.53935,-355.77354,457.74686)"/>
</g>
<g transform="translate(999.1248,114.6854)">
<g transform="translate(-1489.7498,-114.6854)">
<g transform="matrix(.97109,-.23869,.23869,.97109,297.7817,480.68138)">
<path d="m545.1025,357.0566h8.8388v304.9398h-8.8388z" fill="url(#linearGradient23945)" fill-rule="evenodd" stroke="#000"/>
<path d="m489.5487,113.4716 83.3142-1.363-1.4719,226.0194c-7.9239,30.6911-87.1548,22.3004-83.3143-4.1612z" fill="url(#linearGradient23947)" fill-rule="evenodd"/>
<path d="m483.1777,105.0172c34.7876,12.5573 66.3955,13.0314 94.4493,0v14.6472c-20.3065,16.9514-81.9727,10.9734-94.4493,0z" fill="url(#linearGradient23971)" fill-rule="evenodd" stroke="#0a0"/>
<path d="m577.5082,105.0547-43.5589-67.2636c-2.5618-1.0511-5.3526-1.3003-8.5863,0l-42.3314,67.0468c31.0419,11.3302 62.4269,14.0804 94.4766.2168z" fill="url(#linearGradient23971)"/>
<path d="m530.2307,37.8302 37.6598,64.8235c-8.2906,5.2605-17.3579,6.2492-26.6841,5.8144z" fill="#fff" filter="url(#filter13948)" opacity=".41"/>
<path d="m971.8477,260.8958 31.0192,66.386c-8.843,3.1889-7.0873,2.7769-16.1372,3.8612z" fill="#fff" filter="url(#filter14014)" opacity=".24" transform="matrix(-1,0,0,1,1500.6757,-222.28434)"/>
<path d="m488.4306,339.8524c30.3514,12.5892 57.9284,13.0645 82.4046,0v14.6844c-17.7169,16.9944-71.5191,11.0013-82.4046,0z" fill="url(#linearGradient23953)" fill-rule="evenodd" stroke="#008e00" stroke-width=".9352"/>
<path d="m531.5266,368.8438-5.1456.0186c-1.1382.004-2.0583-.7971-2.0629-1.7963-.005-.9993.9079-1.807 2.0461-1.8111l5.1456-.0186c1.1382-.004 2.0583.7971 2.063,1.7963 .005.9993-.9079,1.807-2.0461,1.8111m.0169,3.6075-5.1456.0186c-1.1382.004-2.0583-.7971-2.0629-1.7963-.005-.9993.9079-1.807 2.0461-1.8111l5.1456-.0186c1.1382-.004 2.0583.7971 2.063,1.7963 .005.9993-.9079,1.807-2.0461,1.8111m.0169,3.6074-5.1456.0186c-1.1382.004-2.0583-.7971-2.0629-1.7963-.005-.9993.9079-1.807 2.0461-1.8111l5.1456-.0186c1.1382-.004 2.0583.7971 2.0629,1.7963 .005.9993-.9079,1.807-2.0461,1.8111m.0169,3.6075-5.1456.0186c-1.1382.004-2.0583-.7971-2.0629-1.7963-.005-.9993.9079-1.807 2.0461-1.8111l5.1456-.0186c1.1382-.004 2.0583.7971 2.0629,1.7963 .005.9993-.9079,1.807-2.0461,1.8111m.0169,3.6074-5.1456.0186c-1.1382.004-2.0583-.7971-2.0629-1.7963-.005-.9993.9079-1.807 2.0461-1.8111l5.1456-.0186c1.1382-.004 2.0583.7971 2.0629,1.7963 .005.9993-.9079,1.807-2.0461,1.8111m-.877,4.0027-5.0377-.9207c-1.1143-.2037-1.8247-1.1552-1.5927-2.1335s1.2235-.9258 2.3617-.9299l5.1456-.0186c1.1382-.004 1.7851,1.6261 1.5531,2.6044s-1.3158,1.6019-2.4301,1.3983m-.8375,3.5318-5.0377-.9207c-1.1143-.2037-1.8247-1.1552-1.5927-2.1335s1.3158-1.6019 2.4301-1.3983l5.0377.9207c1.1143.2037 1.8247,1.1552 1.5927,2.1335s-1.3158,1.6019-2.4301,1.3983m-.621,3.4132-5.096-.6263c-1.1272-.1385-1.9076-1.0468-1.7498-2.0364s1.3148-1.8748 2.4291-1.6712l5.0377.9207c1.1143.2037 1.8564.8873 1.6986,1.8769s-1.1923,1.6748-2.3195,1.5362m-.5697,3.5726-5.096-.6263c-1.1272-.1385-1.9077-1.0468-1.7498-2.0364s1.1923-1.6748 2.3195-1.5362l5.096.6263c1.1272.1385 1.9077,1.0468 1.7498,2.0364s-1.1923,1.6748-2.3195,1.5362m-1.5485,3.9364-4.7482-1.741c-1.0503-.3851-1.5427-1.4375-1.104-2.3596s1.1775-.6007 2.3047-.4622l5.096.6263c1.1272.1385 1.5778,2.0451 1.1391,2.9672s-1.6373,1.3544-2.6876.9693m-1.5836,3.3288-4.7482-1.741c-1.0503-.3851-1.5427-1.4375-1.104-2.3595s1.6373-1.3544 2.6876-.9693l4.7482,1.741c1.0503.3851 1.5427,1.4375 1.104,2.3596s-1.6373,1.3544-2.6876.9693m-2.8554,3.4156-3.9896-2.8531c-.8825-.6311-1.0142-1.7629-.2954-2.5377s1.3419-.151 2.3921.2341l4.7482,1.741c1.0503.3851.754,2.3815.0351,3.1563s-2.008.8904-2.8905.2593m-3.0648,3.0276-3.2582-3.4965c-.7207-.7734-1.2759-1.3501-.557-2.1248s2.008-.8904 2.8905-.2593l3.9896,2.8531c.8825.6311 1.0142,1.7629.2954,2.5377s-2.6395,1.2634-3.3602.4899m-3.1804,2.2843-3.2582-3.4965c-.7207-.7734-.5917-1.9055.2893-2.5382s2.1704-.5195 2.8911.2539l3.2582,3.4965c.7207.7734.5917,1.9055-.2893,2.5382s-2.1704.5195-2.8911-.2539m-2.6944,2.1898-3.875-2.9713c-.8571-.6572-.7318-1.9511.0668-2.6629s2.5236-.8256 3.2444-.0521l3.2582,3.4965c.7207.7734.8882,1.5449.0895,2.2566s-1.9268.5904-2.7839-.0668m-2.3568,2.6133-4.2517-2.5434c-.9405-.5626-1.0109-1.8722-.3148-2.6627s2.1912-1.0357 3.0483-.3785l3.875,2.9713c.8571.6572 1.0937,1.5852.3976,2.3757s-1.8139.8002-2.7544.2376m-1.9553,2.8744-4.5521-2.1052c-1.0069-.4657-1.2823-1.7571-.6969-2.6139s2.012-1.2613 2.9525-.6986l4.2517,2.5434c.9405.5626 1.3167,1.4771.7313,2.334s-1.6797,1.0061-2.6866.5404m-1.3611,2.7434-5.0282-.9597c-1.1122-.2123-1.4445-1.9891-.9706-2.8975s1.801-1.4571 2.8079-.9914l4.5521,2.1052c1.0069.4657 1.5271,1.3607 1.0532,2.2691s-1.3021.6866-2.4143.4743m-.8729,3.5251-5.0282-.9597c-1.1122-.2123-1.813-1.1693-1.5712-2.1458s1.3319-1.5917 2.4441-1.3794l5.0282.9597c1.1122.2123 1.813,1.1693 1.5712,2.1457s-1.3319,1.5917-2.4441,1.3794m-.9106,3.598-4.9872-1.1126c-1.1032-.2461-1.8163-1.0893-1.5745-2.0657s1.3319-1.5917 2.4441-1.3794l5.0282.9597c1.1122.2123 1.813,1.1693 1.5712,2.1458s-1.3786,1.6984-2.4818,1.4523m-1.012,3.4964-4.9872-1.1126c-1.1032-.2461-1.7656-1.2239-1.4853-2.1924s1.3941-1.55 2.4972-1.304l4.9872,1.1126c1.1032.2461 1.7656,1.2239 1.4853,2.1924s-1.3941,1.5501-2.4972,1.304" fill="#dcb42c" fill-rule="evenodd" stroke="#000" stroke-width=".2172"/>
</g>
<path d="m895.3755,794.7803-6.8778-6.6049-4.9152,20.1114-.4421-20.6986-18.1148,15.4829 14.1258-19.1069-9.504-.7764 8.407-4.5002-22.0258-12.8798 24.2397,7.9662-2.1985-9.2788 6.8778,6.6049 4.9152-20.1114 .4421,20.6986 21.8927-20.5391-17.9037,24.1631 9.504.7764-8.407,4.5002 22.0258,12.8798-24.2397-7.9662z" fill="url(#radialGradient32056)" stroke="#ffff65" stroke-linecap="round" stroke-width="1.2663"/>
</g>
<g transform="translate(-9.1051,24.4056)">
<path d="m-476.1923,538.605h8.8388v304.9398h-8.8388z" fill="url(#linearGradient14118)" fill-rule="evenodd" stroke="#000"/>
<path d="m-531.746,295.0199 83.3142-1.363-1.4719,226.0194c-7.9239,30.6911-87.1548,22.3004-83.3143-4.1612z" fill="url(#linearGradient14038)" fill-rule="evenodd"/>
<path d="m470.668,133.1234-35.0078-19.5409-35.9438,17.7605 7.7665-39.3328-27.9985-28.6963 39.8077-4.7681 18.6398-35.4958 16.836,36.386 39.5185,6.7587-29.4025,27.2559z" fill="none" stroke="#3f94d0" stroke-width="15.0094" transform="matrix(.34848,.17021,-.17021,.34848,-615.45393,221.19363)"/>
<g transform="translate(-1490.5331,247.9546)">
<path d="m952.416,38.611c34.7876,12.5573 66.3955,13.0314 94.4493,0v14.6472c-20.3065,16.9514-81.9727,10.9735-94.4493,0z" fill="url(#linearGradient13920)" fill-rule="evenodd" stroke="#f00"/>
<path d="m1046.7466,38.6484-43.5589-67.2636c-2.5618-1.0511-5.3526-1.3003-8.5863,0l-42.3314,67.0468c31.0419,11.3302 62.4269,14.0804 94.4766.2168z" fill="url(#linearGradient13912)"/>
<path d="m999.4691-28.576 37.6598,64.8235c-8.2906,5.2605-17.3579,6.2492-26.6841,5.8144z" fill="#fff" filter="url(#filter13948)" opacity=".41"/>
<path d="m971.8477,260.8958 31.0192,66.386c-8.843,3.1889-7.0873,2.7769-16.1372,3.8612z" fill="#fff" filter="url(#filter14014)" opacity=".24" transform="matrix(-1,0,0,1,1969.9141,-288.69059)"/>
</g>
<path d="m470.668,133.1234-35.0078-19.5409-35.9438,17.7605 7.7665-39.3328-27.9985-28.6963 39.8077-4.7681 18.6398-35.4958 16.836,36.386 39.5185,6.7587-29.4025,27.2559z" fill="none" stroke="#3f94d0" stroke-width="15.0094" transform="matrix(.34848,.17021,-.17021,.34848,-619.87335,337.20334)"/>
<path d="m470.668,133.1234-35.0078-19.5409-35.9438,17.7605 7.7665-39.3328-27.9985-28.6963 39.8077-4.7681 18.6398-35.4958 16.836,36.386 39.5185,6.7587-29.4025,27.2559z" fill="none" stroke="#3f94d0" stroke-width="15.0094" transform="matrix(.34848,.17021,-.17021,.34848,-644.18015,396.86547)"/>
<path d="m470.668,133.1234-35.0078-19.5409-35.9438,17.7605 7.7665-39.3328-27.9985-28.6963 39.8077-4.7681 18.6398-35.4958 16.836,36.386 39.5185,6.7587-29.4025,27.2559z" fill="none" stroke="#3f94d0" stroke-width="15.0094" transform="matrix(.19033,.0022,-.0022,.19033,-549.82891,352.75981)"/>
<path d="m470.668,133.1234-35.0078-19.5409-35.9438,17.7605 7.7665-39.3328-27.9985-28.6963 39.8077-4.7681 18.6398-35.4958 16.836,36.386 39.5185,6.7587-29.4025,27.2559z" fill="none" stroke="#3f94d0" stroke-width="15.0094" transform="matrix(.19033,.0022,-.0022,.19033,-599.54736,329.55787)"/>
<path d="m470.668,133.1234-35.0078-19.5409-35.9438,17.7605 7.7665-39.3328-27.9985-28.6963 39.8077-4.7681 18.6398-35.4958 16.836,36.386 39.5185,6.7587-29.4025,27.2559z" fill="none" stroke="#3f94d0" stroke-width="15.0094" transform="matrix(.19033,.0022,-.0022,.19033,-599.54736,415.73651)"/>
<path d="m470.668,133.1234-35.0078-19.5409-35.9438,17.7605 7.7665-39.3328-27.9985-28.6963 39.8077-4.7681 18.6398-35.4958 16.836,36.386 39.5185,6.7587-29.4025,27.2559z" fill="none" stroke="#3f94d0" stroke-width="15.0094" transform="matrix(.19033,.0022,-.0022,.19033,-550.93377,467.66466)"/>
<path d="m-484.8094,541.9794-4.2173-3.127c-.5841-.4331-.8366-1.1874-.479-1.8585s1.0261-.7891 1.6369-.4063l4.4105,2.7639c.6109.3828.7829,1.3973.4254,2.0684s-1.1923.9927-1.7764.5596m-1.5162,2.4864-4.0213-3.4426c-.557-.4768-.7488-1.2559-.3499-1.8965s1.0861-.7075 1.6702-.2744l4.2173,3.127c.5841.4331.6894,1.4439.2906,2.0845s-1.2499.8787-1.8068.4019m-1.6781,2.3595-3.7971-3.7547c-.5259-.52-.6786-1.2809-.2449-1.8917s1.1418-.6325 1.6987-.1557l4.0213,3.4426c.557.4768.6043,1.4717.1706,2.0825s-1.3228.797-1.8487.277m-1.7469,2.1909-3.6506-3.9372c-.5056-.5453-.625-1.2906-.1701-1.8812 .455-.5906 1.2446-.6473 1.7705-.1273l3.7971,3.7547c.5259.52.583,1.4141.1281,2.0046s-1.3694.7316-1.875.1863m-1.8031,2.0775-3.547-4.0572c-.4913-.5619-.491-1.4584.0006-2.0101s1.1933-.4927 1.6989.0526l3.6506,3.9372c.5056.5453.4626,1.5443-.029,2.096s-1.2828.5434-1.7741-.0185m-1.8173,1.9987-3.4972-4.1124c-.4844-.5696-.4731-1.466.0251-2.0099s1.251-.4955 1.7423.0664l3.547,4.0572c.4913.5619.4547,1.5012-.0436,2.0451s-1.2894.5232-1.7737-.0463m-1.7633,1.9316-3.5616-4.0408c-.4933-.5596-.4443-1.5057.054-2.0496s1.2894-.5232 1.7737.0463l3.4972,4.1124c.4844.5696.4731,1.466-.0251,2.0099s-1.2449.4814-1.7382-.0783m-1.691,1.9511-3.6783-3.9038c-.5094-.5407-.4561-1.5445.0335-2.0984s1.2809-.5493 1.7742.0103l3.5615,4.0408c.4933.5596.4962,1.4561.007,2.01s-1.1881.4818-1.6976-.0589m-1.5802,2.0069-3.842-3.6954c-.5321-.5118-.5025-1.5866-.0295-2.1587s1.2639-.5973 1.7734-.0567l3.6783,3.9038c.5094.5407.5388,1.4365.0658,2.0086s-1.1139.5102-1.646-.001m-1.411,2.0493-4.0918-3.3342c-.5667-.4618-.6232-1.4687-.1999-2.0888s1.3286-.8335 1.8607-.3217l3.842,3.6954c.5321.5118.7012,1.2463.2779,1.8664s-1.1221.6447-1.6888.1829m-1.1898,2.0898-4.4141-2.7561c-.6114-.3817-.675-1.5447-.2924-2.1978s1.2378-.9318 1.8045-.47l4.0918,3.3342c.5667.4618.7856,1.2188.4031,1.872s-.9815.5996-1.5929.2179m-1.0347,2.2945-4.6113-2.3047c-.6387-.3192-.8491-1.3227-.5419-2.025s1.1625-1.1027 1.7738-.721l4.4141,2.7561c.6114.3817.8932,1.0656.586,1.768s-.9821.8457-1.6208.5265m-.8294,2.3928-4.7759-1.8244c-.6615-.2527-.9583-1.236-.7079-1.9667s1.0632-1.2256 1.7019-.9064l4.6113,2.3047c.6387.3192.9848.971.7344,1.7017s-.9023.9438-1.5638.6911m-.6392,2.4924-4.8916-1.3768c-.6775-.1907-1.054-1.1103-.8625-1.8635s.9559-1.3292 1.6174-1.0765l4.7759,1.8244c.6615.2527 1.0629.8702.8713,1.6235s-.833,1.0596-1.5105.869m-.5742,2.6727-4.9234-1.2229c-.6819-.1694-1.0849-1.0368-.918-1.7976s.8465-1.2197 1.524-1.0291l4.8916,1.3768c.6775.1907 1.0886.9567.9218,1.7174s-.8141,1.1247-1.496.9553m-.5195,2.6933-4.9494-1.0798c-.6855-.1495-1.101-.9943-.9528-1.76s.8164-1.2458 1.4983-1.0765l4.9234,1.2229c.6819.1694 1.1116.9222.9634,1.6879s-.7974,1.155-1.4829,1.0055m-.4723,2.7789-4.9494-1.0798c-.6855-.1495-1.132-.8896-1.0012-1.6594s.788-1.2691 1.4735-1.1195l4.9494,1.0798c.6855.1495 1.132.8896 1.0012,1.6594s-.788,1.2691-1.4735,1.1195m-.4118,2.7204-4.9713-.9425c-.6885-.1305-1.1509-.858-1.0367-1.6312s.7848-1.3761 1.4703-1.2265l4.9494,1.0798c.6855.1495 1.1514.7873 1.0372,1.5604s-.7604,1.2905-1.4489,1.16m-.3701,2.7293-4.9898-.8071c-.6911-.1118-1.1687-.8265-1.0709-1.6026s.7711-1.3926 1.4596-1.2621l4.9713.9425c.6885.1305 1.1516.7542 1.0538,1.5303s-.7329,1.3108-1.424,1.199m-.3313,2.7354-5.0055-.6706c-.6933-.0929-1.1748-.8969-1.077-1.6729s.7329-1.3108 1.424-1.199l4.9898.8071c.6911.1118 1.1687.8265 1.0709,1.6026s-.7089,1.2257-1.4022,1.1328m-.2933,2.8104-5.0055-.6706c-.6933-.0929-1.186-.7944-1.1047-1.5729s.7048-1.3304 1.398-1.2376l5.0055.6706c.6933.0929 1.186.7944 1.1047,1.5729s-.7048,1.3304-1.398,1.2375m-.2332,2.7466-5.0186-.5301c-.6951-.0734-1.2029-.7609-1.1387-1.5414s.6918-1.4385 1.385-1.3457l5.0055.6706c.6933.0929 1.2016.6897 1.1373,1.4702s-.6755,1.3498-1.3706,1.2764m-.1959,2.747-5.029-.383c-.6965-.0531-1.2285-.8372-1.1643-1.6177s.6755-1.3498 1.3706-1.2764l5.0186.5301c.6951.0734 1.2029.7609 1.1387,1.5414s-.6381,1.2587-1.3346,1.2056m-.1595,2.7458-5.0364-.2268c-.6975-.0314-1.2206-.8038-1.1742-1.5859s.6445-1.3691 1.341-1.316l5.029.383c.6965.0531 1.2199.7254 1.1735,1.5076s-.6354,1.2696-1.333,1.2382m-.0992,2.8277-5.0364-.2268c-.6975-.0314-1.237-.6873-1.2095-1.4706s.6111-1.3886 1.3087-1.3572l5.0364.2268c.6975.0314 1.237.6873 1.2095,1.4706s-.6112,1.3886-1.3087,1.3572m-.0505,2.7449-5.04-.0586c-.698-.008-1.2543-.6457-1.2472-1.4296s.6038-1.515 1.3014-1.4836l5.0364.2268c.6975.0314 1.2294.5608 1.2223,1.3447s-.5748,1.4084-1.2728,1.4003m-.01,2.7381-5.0391.1247c-.6979.0173-1.2713-.7372-1.2642-1.5211s.5748-1.4084 1.2728-1.4003l5.04.0586c.698.008 1.2543.6457 1.2472,1.4296s-.5588,1.2913-1.2568,1.3085m.0546,2.8293-5.0391.1247c-.6979.0173-1.2719-.5998-1.287-1.3835s.5346-1.4285 1.2325-1.4458l5.0391-.1247c.6979-.0173 1.2719.5998 1.287,1.3835s-.5346,1.4285-1.2325,1.4458m.1199,2.7253-5.032.3264c-.6969.0452-1.2898-.5484-1.3294-1.331s.5045-1.5787 1.2024-1.596l5.0391-.1247c.6979-.0173 1.267.4485 1.3065,1.2311s-.4897,1.449-1.1866,1.4942m.1713,2.7101-5.0167.5504c-.6948.0763-1.3337-.6573-1.3732-1.4399s.4897-1.449 1.1866-1.4942l5.032-.3264c.6969-.0452 1.2898.5484 1.3294,1.331s-.4633,1.3028-1.1581,1.379m.2408,2.8167-5.0167.5505c-.6948.0762-1.3079-.4905-1.3746-1.2707s.439-1.4697 1.1338-1.546l5.0167-.5504c.6948-.0762 1.3079.4905 1.3745,1.2707s-.439,1.4697-1.1338,1.5459m.335,2.6766-4.9902.8014c-.6911.111-1.3257-.4244-1.4228-1.2005s.3665-1.6508 1.0614-1.727l5.0167-.5505c.6948-.0762 1.3101.2993 1.4072,1.0754s-.3811,1.4902-1.0723,1.6012m.3921,2.6876-4.961,1.0096c-.6871.1398-1.3387-.3687-1.4611-1.1403s.3487-1.6445 1.0398-1.7555l4.9902-.8014c.6911-.111 1.2892.2709 1.4115,1.0425s-.3323,1.5053-1.0194,1.6451m.4956,2.6114-4.9038,1.32c-.6792.1828-1.3829-.4029-1.5234-1.1704s.2836-1.6116.9707-1.7514l4.961-1.0096c.6871-.1398 1.3307.2535 1.4712,1.0211s-.2965,1.4075-.9757,1.5903m.6059,2.6543-4.8656,1.4905c-.6739.2064-1.3618-.2366-1.5424-.9933s.219-1.6487.8982-1.8316l4.9038-1.32c.6792-.1828 1.3157.1591 1.4963.9158s-.2165,1.5321-.8904,1.7385" fill="#dcb830" fill-rule="evenodd" stroke="#000" stroke-width=".3035"/>
<path d="m-532.8642,521.4007c30.3514,12.5892 57.9284,13.0645 82.4046,0v14.6844c-17.7169,16.9944-71.5191,11.0013-82.4046,0z" fill="url(#linearGradient14080)" fill-rule="evenodd" stroke="#f00" stroke-width=".9352"/>
<path clip-path="url(#clipPath14104)" d="m470.668,133.1234-35.0078-19.5409-35.9438,17.7605 7.7665-39.3328-27.9985-28.6963 39.8077-4.7681 18.6398-35.4958 16.836,36.386 39.5185,6.7587-29.4025,27.2559z" fill="none" stroke="#3f94d0" stroke-width="15.0094" transform="matrix(.34848,.17021,-.17021,.34848,-649.13573,283.19952)"/>
<path d="m-508.4114,650.6694-2.4264-9.2218-14.6784,14.6004 10.4127-17.8942-23.5299,3.7698 22.0149-8.9419-7.7058-5.6169 9.5203.5421-12.0823-22.4732 16.533,19.4341 2.9607-9.0644 2.4264,9.2218 14.6784-14.6004-10.4126,17.8942 29.3896-6.1153-27.8746,11.2874 7.7058,5.6169-9.5203-.5421 12.0823,22.4732-16.533-19.4341z" fill="url(#radialGradient32062)" stroke="#ffff65" stroke-linecap="round" stroke-width="1.2663"/>
</g>
<path d="m-418.1163,599.7217-1.4288-4.1209c-.316-.9115-.1446-2.2887.3843-3.0879s1.2092-.7087 1.5253.2029l1.4288,4.1209c.316.9115.1446,2.2887-.3843,3.0879s-1.2092.7087-1.5253-.2029m-1.9096,2.885-1.4288-4.1209c-.3161-.9115-.1446-2.2887.3844-3.0879s1.2092-.7087 1.5253.2029l1.4288,4.1209c.316.9115.1446,2.2887-.3843,3.0879s-1.2092.7087-1.5253-.2029m-1.9096,2.885-1.4288-4.1209c-.316-.9115-.1446-2.2887.3843-3.0879s1.2092-.7087 1.5253.2029l1.4288,4.1209c.3161.9115.1446,2.2887-.3843,3.0879s-1.2092.7087-1.5253-.2029m-1.9096,2.885-1.4288-4.1209c-.316-.9115-.1446-2.2887.3843-3.0879s1.2092-.7087 1.5253.2029l1.4288,4.1209c.316.9115.1446,2.2887-.3843,3.0879s-1.2092.7087-1.5253-.2029m-1.0683,2.3194-2.5641-2.0787c-.5672-.4598-.5178-1.9109-.0611-2.8339s1.9488-2.4393 2.2648-1.5278l1.4288,4.1209c.316.9115 1.0649.8677.6082,1.7908s-1.1093.9884-1.6765.5286m-1.4637,3.2379-2.728-1.7165c-.6034-.3797-.7522-1.4533-.3336-2.4072s1.394-1.6528 1.9612-1.193l2.5642,2.0787c.5672.4598.7998,1.2475.3811,2.2014s-1.2415,1.4162-1.8449,1.0365m-1.2984,3.1097-3.0308-.9822c-.6704-.2173-.7607-1.5022-.3628-2.4673s1.3605-1.7562 1.964-1.3765l2.728,1.7165c.6034.3797.8922,1.1247.4942,2.0899s-1.1223,1.2371-1.7927,1.0198m-1.2633,3.336-3.1697-.6102c-.7011-.135-.8631-1.3687-.4869-2.3424s1.2188-1.5828 1.8892-1.3655l3.0308.9822c.6704.2173.9072,1.1761.531,2.1499s-1.0932,1.321-1.7943,1.1861m-1.1609,3.3554-3.3003-.2349c-.73-.0519-1.0525-.885-.7231-1.8677s1.3135-1.998 2.0146-1.863l3.1697.6102c.7012.1349 1.0809.6925.7514,1.6752s-1.1823,1.7321-1.9124,1.6802m-.9883,3.174-3.5322.5131c-.7813.1135-1.0758-.9179-.7714-1.901s1.2616-2.073 1.9916-2.0211l3.3003.2349c.73.0519 1.1677.5445.8634,1.5276s-1.0704,1.5329-1.8517,1.6464m-.9221,3.3559-3.6289.8681c-.8027.192-1.1743-.755-.8953-1.7357s1.1328-1.8617 1.9141-1.9752l3.5322-.5131c.7813-.1135 1.1856.5847.9065,1.5654s-1.0259,1.5984-1.8286,1.7905m-.7663,3.155-3.7932,1.565c-.8391.3462-1.2633-.4655-1.0349-1.4341s1.1629-2.2258 1.9656-2.4178l3.6289-.8681c.8027-.192 1.317.1253 1.0887,1.0939s-1.016,1.7149-1.855,2.0611m-.6647,3.2766-3.861,1.9069c-.854.4218-1.3494-.3037-1.1471-1.2627s1.0405-2.0096 1.8796-2.3558l3.7932-1.565c.839-.3462 1.3517.1471 1.1495,1.1061s-.9601,1.7487-1.8141,2.1705m-.543,3.2164-3.9193,2.2445c-.8669.4965-1.4452.1455-1.2965-.787s1.0438-2.3453 1.8978-2.7671l3.861-1.9069c.854-.4218 1.4388-.2954 1.2902.6371s-.9662,2.0828-1.8332,2.5793m-.374,2.9606-4.0068,2.9066c-.8863.6429-1.4926.1451-1.3714-.7706s.966-2.3556 1.8329-2.8521l3.9193-2.2445c.8669-.4965 1.5054-.4553 1.3843.4603s-.872,1.8574-1.7583,2.5003m.0591,1.7968-3.9872,4.9855c-.882,1.1028-1.6793,1.4291-1.7878.7318s.8229-3.9645 1.7092-4.6075l4.0068-2.9066c.8863-.6429 1.3467-2.15 1.4552-1.4526s-.5142,2.1466-1.3961,3.2494m.3917,2.5177-3.9872,4.9855c-.882,1.1028-1.6793,1.4291-1.7878.7318s.5142-2.1466 1.3961-3.2494l3.9872-4.9855c.882-1.1028 1.6793-1.4291 1.7878-.7317s-.5142,2.1466-1.3961,3.2494m.3917,2.5177-3.9872,4.9855c-.882,1.1028-1.6793,1.4291-1.7878.7317s.5142-2.1466 1.3961-3.2494l3.9872-4.9855c.882-1.1028 1.6793-1.4291 1.7878-.7318s-.5142,2.1466-1.3961,3.2494m.3917,2.5177-3.9872,4.9855c-.882,1.1028-1.6793,1.4291-1.7878.7317s.5142-2.1466 1.3961-3.2494l3.9872-4.9855c.882-1.1028 1.6793-1.4291 1.7878-.7318s-.5142,2.1466-1.3961,3.2494m.3917,2.5177-3.9872,4.9855c-.882,1.1028-1.6793,1.4291-1.7878.7317s.5142-2.1466 1.3961-3.2494l3.9872-4.9855c.882-1.1028 1.6793-1.4291 1.7878-.7317s-.5142,2.1466-1.3961,3.2494m.5342,1.7299-3.7647,5.8516c-.8327,1.2944-1.6742,1.892-1.8866,1.3399s.248-2.8331 1.1299-3.9359l3.9872-4.9855c.882-1.1028 1.4414-2.1552 1.6539-1.6031s-.2869,2.0386-1.1197,3.3329m.767,1.993-3.7647,5.8517c-.8327,1.2944-1.6742,1.892-1.8866,1.3399s.2869-2.0386 1.1197-3.3329l3.7647-5.8516c.8327-1.2944 1.6742-1.892 1.8866-1.3399s-.2869,2.0386-1.1197,3.3329m.767,1.993-3.7647,5.8517c-.8327,1.2944-1.6742,1.892-1.8866,1.3399s.2869-2.0385 1.1197-3.3329l3.7647-5.8517c.8327-1.2944 1.6742-1.892 1.8866-1.3399s-.2869,2.0386-1.1197,3.3329m.767,1.993-3.7647,5.8517c-.8327,1.2944-1.6742,1.892-1.8866,1.3399s.2869-2.0385 1.1197-3.3329l3.7647-5.8517c.8327-1.2944 1.6742-1.892 1.8866-1.3399s-.2869,2.0386-1.1197,3.3329m.8358,1.9669-3.8027,5.7447c-.8411,1.2707-1.5666,2.1269-1.808,1.6213s.1775-2.1869 1.0103-3.4813l3.7647-5.8517c.8327-1.2944 1.5897-2.0801 1.8311-1.5745s-.1542,2.2707-.9953,3.5414m.7165,2.2716-3.8875,5.4649c-.8599,1.2088-1.5928,1.9095-1.7914,1.3364s.3186-2.0574 1.1598-3.3282l3.8027-5.7447c.8412-1.2707 1.6783-1.8324 1.8769-1.2593s-.3005,2.3221-1.1604,3.5309m.5446,2.5121-3.9554,5.164c-.8749,1.1423-1.6829,1.5212-1.8115.8496s.4749-1.8519 1.3348-3.0608l3.8875-5.4649c.8599-1.2088 1.7631-1.4335 1.8918-.762s-.4722,2.1318-1.3472,3.274m.3587,2.9407-4.0416,4.4995c-.894.9953-1.6283,1.4943-1.7212.7779s.5737-1.9119 1.4486-3.0541l3.9554-5.164c.8749-1.1422 1.7095-1.2072 1.8024-.4908s-.5497,2.4362-1.4437,3.4314m.1457,2.9924-4.0595,4.1357c-.8979.9148-1.637,1.0093-1.6571.2118s.6354-1.8451 1.5293-2.8403l4.0416-4.4995c.894-.9953 1.7102-.8958 1.7303-.0983s-.6862,2.1759-1.5846,3.0907m-.0518,3.3466-4.0486,3.4296c-.8955.7586-1.5846,1.048-1.5769.2232s.7199-1.9489 1.6179-2.8637l4.0595-4.1357c.898-.9148 1.6364-.7488 1.6288.076s-.7851,2.5118-1.6806,3.2705m-.2618,3.4096-4.0102,2.9378c-.887.6498-1.5458.6738-1.4771-.204s.8049-1.9551 1.7004-2.7137l4.0486-3.4296c.8955-.7586 1.5721-.4641 1.5034.4138s-.8783,2.3459-1.7652,2.9958m-.4544,3.5489-3.9477,2.4305c-.8732.5376-1.4851.4475-1.3731-.4621s.8779-1.9296 1.765-2.5794l4.0102-2.9378c.887-.6498 1.4986-.2234 1.3865.6862s-.9677,2.3251-1.8409,2.8627m-.6803,3.8005-3.8091,1.6405c-.8426.3629-1.4157.128-1.24-.8189s.9085-1.6541 1.7817-2.1917l3.9477-2.4305c.8732-.5376 1.391.2442 1.2153,1.1911s-1.0531,2.2466-1.8956,2.6095" fill="#dcb42c" fill-rule="evenodd" stroke="#000" stroke-width=".1745"/>
<path d="m-327.0762,635.9623h8.8388v304.9398h-8.8388z" fill="url(#linearGradient20744)" fill-rule="evenodd" stroke="#000" transform="rotate(6.733)"/>
<path d="m-425.9945,344.8105 81.3477,8.2312-26.4092,224.4712c-11.4675,29.5504-89.1683,11.9284-82.2518-13.9006z" fill="url(#linearGradient20746)" fill-rule="evenodd"/>
<path d="m-453.2032,568.2455c7.6247-4.6626 78.2646-.0587 83.7502-5.7422l-1.5402,13.0463c-5.1236,5.4666-75.7447,1.4089-83.7502,5.7422z" fill="url(#linearGradient23818)" fill-rule="evenodd"/>
<path d="m-453.6465,569.4989c28.666,16.0608 55.9971,19.766 81.8363,9.6614l-1.7216,14.5831c-19.5872,14.8-72.3157,2.5403-81.8363-9.6613z" fill="url(#linearGradient20752)" fill-rule="evenodd" stroke="#0024ff" stroke-width=".9352"/>
<g fill="url(#linearGradient20768)" transform="matrix(.9931,.11724,-.11724,.9931,-1372.651,185.65881)">
<path d="m1046.7466,38.6484-43.5589-67.2636c-2.5618-1.0511-5.3526-1.3003-8.5863,0l-42.3314,67.0468c31.0419,11.3302 62.4269,14.0804 94.4766.2168z" fill="url(#linearGradient20768)"/>
<path d="m952.416,38.611c34.7876,12.5573 66.3955,13.0314 94.4493,0v14.6472c-20.3065,16.9514-81.9727,10.9735-94.4493,0z" fill="url(#linearGradient20768)" fill-rule="evenodd" stroke="#0024ff"/>
<path d="m971.8477,260.8958 31.0192,66.386c-8.843,3.1889-7.0873,2.7769-16.1372,3.8612z" fill="#fff" filter="url(#filter14014)" opacity=".219" transform="matrix(-1,0,0,1,1969.9141,-288.69059)"/>
<path d="m999.4691-28.576 37.6598,64.8235c-8.2906,5.2605-17.3579,6.2492-26.6841,5.8144z" fill="#fff" filter="url(#filter13948)" opacity=".26"/>
</g>
<path d="m-443.6499,487.3244c7.6247-4.6626 78.2646-.0587 83.7502-5.7422l-1.5402,13.0463c-5.1236,5.4666-75.7447,1.4089-83.7502,5.7422z" fill="url(#linearGradient23784)" fill-rule="evenodd"/>
<path d="m-447.0826,516.4011c7.6247-4.6626 78.2646-.0587 83.7502-5.7422l-1.5402,13.0463c-5.1236,5.4666-75.7447,1.4089-83.7502,5.7422z" fill="url(#linearGradient23792)" fill-rule="evenodd"/>
<path d="m-440.3791,459.6192c7.6247-4.6626 78.2646-.0587 83.7502-5.7422l-1.5402,13.0462c-5.1236,5.4666-75.7447,1.4089-83.7502,5.7422z" fill="url(#linearGradient23776)" fill-rule="evenodd"/>
<path d="m-436.704,430.8453c7.5992-4.647 78.0025-.0585 83.4698-5.7229l-1.5351,13.0026c-5.1065,5.4483-75.4911,1.4042-83.4698,5.7229z" fill="url(#linearGradient23768)" fill-rule="evenodd"/>
<path d="m-433.0613,402.3456c7.5737-4.6313 77.7405-.0583 83.1894-5.7037l-1.5299,12.9589c-5.0893,5.43-75.2375,1.3995-83.1894,5.7037z" fill="url(#linearGradient23760)" fill-rule="evenodd"/>
<path d="m-429.2257,372.212c7.5546-4.6708 77.4894-.1502 82.9273-5.8393l-1.5402,13.0463c-5.0793,5.4718-74.996,1.4973-82.9273,5.8393z" fill="url(#linearGradient23802)" fill-rule="evenodd"/>
<path d="m-450.321,543.832c7.6247-4.6626 78.2646-.0587 83.7502-5.7422l-1.5402,13.0463c-5.1236,5.4666-75.7447,1.4089-83.7502,5.7422z" fill="url(#linearGradient23810)" fill-rule="evenodd"/>
<path d="m-434.0633,706.4433 2.5573-9.1864-20.0393,5.2013 18.0178-10.1973-22.218-8.6155 23.5191,3.3855-3.8198-8.7372 7.9465,5.2709 .9053-25.4991 4.4708,25.1204 7.1292-6.3328-2.5573,9.1864 20.0393-5.2013-18.0178,10.1973 28.4607,9.5464-29.7618-4.3165 3.8198,8.7372-7.9465-5.2709-.9053,25.4991-4.4708-25.1204z" fill="url(#radialGradient32066)" stroke="#ffff65" stroke-linecap="round" stroke-width="1.2663"/>
</g>
<path d="m-960.3542-219.2191c-91.6993,23.3587 118.2339,442.0247 23.9405,449.9716s42.6073-439.9498-51.7081-447.6314-31.6976,456.4651-123.4623,433.3644 183.1502-402.2775 96.4393-440.1671-178.194,421.4404-257.4859,369.7954 303.8459-321.0122 234.136-385.0039-305.3805,340.7461-363.607,266.1533 391.6152-204.9603 346.4604-288.1195-399.4742,223.1266-430.3256,133.6694 436.9469-66.6977 421.2405-160.0128-450.2787,81.328-450.4118-13.2997 434.9286,78.7925 450.3726-14.5664-452.2885-69.2839-421.6888-158.8275 385.7791,215.7444 430.6998,132.4586-405.2858-212.3877-347.2693-287.1439 294.8244,329.3171 364.354,265.1296-314.3641-332.476-235.2178-384.3438 171.9209,407.2031 258.5249,369.0698-189.3762-416.5354-97.6769-439.8941 30.3872,440.9624 124.6806,433.0154-43.8665-455.4568 50.4489-447.7751-114.4395,426.9365-22.6749,450.0372 106.3969-445.0223 193.1078-407.1327-246.865,366.6454-167.5731,418.2904c79.2918,51.645 245.1305-386.3627 314.8404-322.3711s-352.5387,266.6227-294.3122,341.2154 357.3005-285.8348 402.4552-202.6756-420.0094,137.7072-389.158,227.1644 430.7513-154.3322 446.4578-61.0171-441.9656-6.131-441.8325,88.4966 457.5236-6.1053 442.0797,87.2536-416.0279-149.3048-446.6276-59.7612 434.7161,142.7832 389.7954,226.069-345.0072-276.2991-403.0237-201.5429 364.8004,276.1989 295.2707,340.3863-236.5996-373.3521-315.7459-321.4843 255.3528,379.6841 168.7489,417.8175-102.5527-429.9466-194.2521-406.5879z" fill="#ff6b00" fill-opacity=".982" opacity=".153" transform="matrix(.2924,0,0,.2924,619.46473,289.05849)"/>
</g>
</svg>
